<svg width="61" height="61" viewBox="0 0 61 61" fill="none" xmlns="http://www.w3.org/2000/svg">
<rect x="0.5" y="0.5" width="60" height="60" rx="15" fill="#32A7E2" fill-opacity="0.1"/>
<path fill-rule="evenodd" clip-rule="evenodd" d="M33.1512 29.5414H36.611C37.1356 29.5414 37.5478 29.1077 37.5478 28.5847C37.5478 28.0489 37.1356 27.628 36.611 27.628H33.1512C32.6266 27.628 32.2145 28.0489 32.2145 28.5847C32.2145 29.1077 32.6266 29.5414 33.1512 29.5414ZM40.7202 22.9094C41.4821 22.9094 41.9818 23.1772 42.4814 23.764C42.981 24.3508 43.0684 25.1928 42.956 25.9569L41.7694 34.325C41.5446 35.9336 40.1956 37.1187 38.6094 37.1187H24.9825C23.3213 37.1187 21.9474 35.8188 21.81 34.135L20.6609 20.2293L18.7748 19.8976C18.2752 19.8083 17.9255 19.3108 18.0129 18.8005C18.1004 18.2788 18.5875 17.9331 19.0996 18.0109L22.0785 18.4689C22.5032 18.5467 22.8154 18.9026 22.8529 19.3363L23.0902 22.1937C23.1277 22.6032 23.4524 22.9094 23.8521 22.9094H40.7202ZM24.7826 39.1348C23.7335 39.1348 22.8841 40.0023 22.8841 41.0738C22.8841 42.1326 23.7335 43 24.7826 43C25.8193 43 26.6687 42.1326 26.6687 41.0738C26.6687 40.0023 25.8193 39.1348 24.7826 39.1348ZM38.8342 39.1348C37.785 39.1348 36.9356 40.0023 36.9356 41.0738C36.9356 42.1326 37.785 43 38.8342 43C39.8709 43 40.7202 42.1326 40.7202 41.0738C40.7202 40.0023 39.8709 39.1348 38.8342 39.1348Z" fill="#32A7E2"/>
</svg>
