<svg width="61" height="61" viewBox="0 0 61 61" fill="none" xmlns="http://www.w3.org/2000/svg">
<rect opacity="0.1" x="0.5" y="0.5" width="60" height="60" rx="15" fill="#FF8700"/>
<path fill-rule="evenodd" clip-rule="evenodd" d="M37.2995 23.2955C37.3495 23.3829 37.437 23.4453 37.5495 23.4453C40.5495 23.4453 42.9995 25.8926 42.9995 28.8893V36.306C42.9995 39.3027 40.5495 41.75 37.5495 41.75H23.4495C20.437 41.75 17.9995 39.3027 17.9995 36.306V28.8893C17.9995 25.8926 20.437 23.4453 23.4495 23.4453C23.5495 23.4453 23.6495 23.3954 23.687 23.2955L23.762 23.1456C23.8051 23.0549 23.8493 22.9618 23.8942 22.8672C24.214 22.1937 24.5678 21.4485 24.787 21.0105C25.362 19.8868 26.337 19.2625 27.5495 19.25H33.437C34.6495 19.2625 35.637 19.8868 36.212 21.0105C36.4089 21.4038 36.7089 22.0374 36.998 22.6481C37.0576 22.774 37.1168 22.8991 37.1745 23.0208L37.2995 23.2955ZM36.3871 28.0902C36.3871 28.7145 36.8871 29.2139 37.5121 29.2139C38.1371 29.2139 38.6496 28.7145 38.6496 28.0902C38.6496 27.4659 38.1371 26.9539 37.5121 26.9539C36.8871 26.9539 36.3871 27.4659 36.3871 28.0902ZM28.3371 30.0255C28.9246 29.4387 29.6871 29.1265 30.4996 29.1265C31.3121 29.1265 32.0746 29.4387 32.6496 30.013C33.2246 30.5874 33.5371 31.3491 33.5371 32.1607C33.5246 33.8338 32.1746 35.1948 30.4996 35.1948C29.6871 35.1948 28.9246 34.8826 28.3496 34.3083C27.7746 33.7339 27.4621 32.9723 27.4621 32.1607V32.1482C27.4496 31.3615 27.7621 30.5999 28.3371 30.0255ZM33.962 35.6318C33.0745 36.5183 31.8495 37.0677 30.4995 37.0677C29.187 37.0677 27.962 36.5558 27.0245 35.6318C26.0995 34.6953 25.587 33.4717 25.587 32.1606C25.5745 30.8621 26.087 29.6384 27.012 28.702C27.9495 27.7655 29.187 27.2536 30.4995 27.2536C31.812 27.2536 33.0495 27.7655 33.9745 28.6895C34.8995 29.626 35.412 30.8621 35.412 32.1606C35.3995 33.5216 34.8495 34.7453 33.962 35.6318Z" fill="#FF8700"/>
</svg>
