<svg width="18" height="18" viewBox="0 0 18 18" fill="none" xmlns="http://www.w3.org/2000/svg">
<path fill-rule="evenodd" clip-rule="evenodd" d="M2.54597 0.868241C2.15545 0.477717 1.52228 0.477717 1.13176 0.868241C0.741234 1.25877 0.741235 1.89193 1.13176 2.28245L7.8493 9L1.13176 15.7175C0.741235 16.1081 0.741234 16.7412 1.13176 17.1318C1.52228 17.5223 2.15545 17.5223 2.54597 17.1318L9.26352 10.4142L15.981 17.1317C16.3715 17.5222 17.0047 17.5222 17.3952 17.1317C17.7857 16.7412 17.7857 16.108 17.3952 15.7175L10.6777 9L17.3952 2.28252C17.7857 1.89199 17.7857 1.25883 17.3952 0.868303C17.0047 0.477779 16.3715 0.477779 15.981 0.868303L9.26352 7.58579L2.54597 0.868241Z" fill="black"/>
</svg>
