<svg width="61" height="61" viewBox="0 0 61 61" fill="none" xmlns="http://www.w3.org/2000/svg">
<rect opacity="0.1" x="0.5" y="0.5" width="60" height="60" rx="15" fill="#B548C6"/>
<path fill-rule="evenodd" clip-rule="evenodd" d="M34.4545 23.1031C34.8484 23.1085 35.2432 23.1139 35.6394 23.118C39.896 23.118 42.9995 26.1526 42.9995 30.3434V35.7263C42.9995 39.9171 39.896 42.9518 35.6394 42.9518C33.9343 42.9879 32.2292 42.9999 30.5118 42.9999C28.7944 42.9999 27.0648 42.9879 25.3597 42.9518C21.103 42.9518 17.9995 39.9171 17.9995 35.7263V30.3434C17.9995 26.1526 21.103 23.118 25.3719 23.118C26.9789 23.0939 28.6227 23.0698 30.291 23.0698V22.8651C30.291 22.0341 29.5918 21.3598 28.7576 21.3598H27.5432C26.157 21.3598 25.0285 20.2519 25.0285 18.9031C25.0285 18.4094 25.4455 17.9999 25.9485 17.9999C26.4637 17.9999 26.8685 18.4094 26.8685 18.9031C26.8685 19.2644 27.1752 19.5534 27.5432 19.5534H28.7576C30.6099 19.5655 32.1187 21.0467 32.131 22.853V23.0818C32.9043 23.0818 33.6776 23.0924 34.4545 23.1031ZM29.0645 33.932H27.7765V35.2085C27.7765 35.7023 27.3594 36.1117 26.8565 36.1117C26.3413 36.1117 25.9365 35.7023 25.9365 35.2085V33.932H24.6362C24.1332 33.932 23.7161 33.5346 23.7161 33.0288C23.7161 32.5351 24.1332 32.1257 24.6362 32.1257H25.9365V30.8612C25.9365 30.3675 26.3413 29.958 26.8565 29.958C27.3594 29.958 27.7765 30.3675 27.7765 30.8612V32.1257H29.0645C29.5675 32.1257 29.9845 32.5351 29.9845 33.0288C29.9845 33.5346 29.5675 33.932 29.0645 33.932ZM34.2781 31.8969H34.4007C34.9037 31.8969 35.3207 31.4995 35.3207 30.9938C35.3207 30.5 34.9037 30.0906 34.4007 30.0906H34.2781C33.7628 30.0906 33.358 30.5 33.358 30.9938C33.358 31.4995 33.7628 31.8969 34.2781 31.8969ZM36.3757 36.0394H36.4984C37.0013 36.0394 37.4184 35.6421 37.4184 35.1363C37.4184 34.6425 37.0013 34.2331 36.4984 34.2331H36.3757C35.8593 34.2331 35.4557 34.6425 35.4557 35.1363C35.4557 35.6421 35.8593 36.0394 36.3757 36.0394Z" fill="#B548C6"/>
</svg>
