<svg width="61" height="61" viewBox="0 0 61 61" fill="none" xmlns="http://www.w3.org/2000/svg">
<rect opacity="0.1" x="0.5" y="0.5" width="60" height="60" rx="15" fill="#22B07D"/>
<path fill-rule="evenodd" clip-rule="evenodd" d="M28.8801 18.3987C28.0422 18.3987 27.3293 18.981 27.1292 19.7658H33.8576C33.6575 18.981 32.9446 18.3987 32.1067 18.3987H28.8801ZM35.7584 19.7658H38.2346C40.8609 19.7658 42.9995 21.9304 42.9995 24.5886C42.9995 24.5886 42.9245 25.7139 42.8995 27.281C42.897 27.405 42.8369 27.5265 42.7381 27.5999C42.1366 28.0442 41.5863 28.4113 41.5363 28.4366C39.4602 29.829 37.0478 30.8088 34.4778 31.2961C34.3102 31.329 34.1451 31.2417 34.06 31.0923C33.3397 29.8442 31.994 29.0316 30.4933 29.0316C29.0025 29.0316 27.6443 29.8354 26.9027 31.0847C26.8164 31.2316 26.6538 31.3164 26.4875 31.2847C23.9387 30.7961 21.5263 29.8177 19.4627 28.4493L18.2621 27.6139C18.1621 27.5506 18.0996 27.4367 18.0996 27.3101C18.062 26.6645 17.9995 24.5886 17.9995 24.5886C17.9995 21.9304 20.1381 19.7658 22.7644 19.7658H25.2281C25.4657 17.9304 27.004 16.5 28.88 16.5H32.1066C33.9825 16.5 35.5208 17.9304 35.7584 19.7658ZM42.5742 30.019L42.5242 30.0444C39.9979 31.7406 36.9589 32.8671 33.7698 33.3355C33.3196 33.3988 32.8693 33.1076 32.7443 32.6519C32.4691 31.614 31.5812 30.9304 30.5182 30.9304H30.5057H30.4806C29.4176 30.9304 28.5297 31.614 28.2545 32.6519C28.1295 33.1076 27.6792 33.3988 27.229 33.3355C24.0399 32.8671 21.0009 31.7406 18.4746 30.0444C18.4621 30.0317 18.3371 29.9558 18.237 30.019C18.1245 30.0823 18.1245 30.2342 18.1245 30.2342L18.212 36.6899C18.212 39.3481 20.3381 41.5 22.9644 41.5H38.0219C40.6482 41.5 42.7743 39.3481 42.7743 36.6899L42.8743 30.2342C42.8743 30.2342 42.8743 30.0823 42.7618 30.019C42.6993 29.9811 42.6242 29.9937 42.5742 30.019ZM31.4312 35.3228C31.4312 35.8545 31.0185 36.2722 30.4932 36.2722C29.9805 36.2722 29.5553 35.8545 29.5553 35.3228V33.6899C29.5553 33.1709 29.9805 32.7406 30.4932 32.7406C31.0185 32.7406 31.4312 33.1709 31.4312 33.6899V35.3228Z" fill="#22B07D"/>
</svg>
